<svg width="267" height="44" viewBox="0 0 267 44" fill="none" xmlns="http://www.w3.org/2000/svg">
<path d="M13.3532 30.9562L19.1252 23.7627C21.1554 21.2325 19.3541 17.4777 16.1101 17.4777C14.937 17.4777 13.8273 18.0104 13.0936 18.9258L1.76762 33.0566C0.839315 34.2148 0.333448 35.6548 0.333448 37.1391C0.333447 40.7443 3.256 43.6668 6.86115 43.6668L13.1629 43.6668C15.5972 43.6668 17.5732 41.6985 17.5828 39.2643L17.5908 37.2171C17.596 35.8986 16.5286 34.827 15.2101 34.827C13.2122 34.827 12.1029 32.5145 13.3532 30.9562Z" fill="#CC7E97"/>
<path d="M27.9714 30.8236L17.3792 13.5054C15.7215 10.7952 17.672 7.31591 20.849 7.31591C22.2504 7.31591 23.5531 8.03736 24.2966 9.22524L39.2894 33.1779C39.9717 34.2679 40.3335 35.5279 40.3335 36.8139C40.3335 40.5986 37.2654 43.6667 33.4806 43.6667L27.5179 43.6667C25.0782 43.6667 23.0999 41.6901 23.0979 39.2504L23.0965 37.4597C23.0953 36.006 24.2735 34.8269 25.7272 34.8269C27.782 34.8269 29.0436 32.5765 27.9714 30.8236Z" fill="#FBFBFB"/>
<path d="M53.1333 40.0359C52.8986 40.0359 52.7066 39.9612 52.5573 39.8119C52.4079 39.6626 52.3333 39.4706 52.3333 39.2359V18.4359C52.3333 18.2012 52.4079 18.0092 52.5573 17.8599C52.7066 17.7106 52.8986 17.6359 53.1333 17.6359H57.3573C57.5706 17.6359 57.7519 17.7106 57.9013 17.8599C58.0719 18.0092 58.1573 18.2012 58.1573 18.4359V32.2039C58.1573 33.8608 59.5004 35.2039 61.1573 35.2039H67.8213C68.0559 35.2039 68.2479 35.2892 68.3973 35.4599C68.5679 35.6092 68.6533 35.8012 68.6533 36.0359V39.2359C68.6533 39.4706 68.5679 39.6626 68.3973 39.8119C68.2479 39.9612 68.0559 40.0359 67.8213 40.0359H53.1333Z" fill="white"/>
<path d="M78.7908 40.3559C76.9988 40.3559 75.4841 40.0679 74.2468 39.4919C73.0308 38.9159 72.0921 38.0946 71.4308 37.0279C70.7908 35.9399 70.4281 34.6492 70.3428 33.1559C70.3214 32.7292 70.3108 32.2492 70.3108 31.7159C70.3108 31.1612 70.3214 30.6812 70.3428 30.2759C70.4281 28.7612 70.8121 27.4706 71.4948 26.4039C72.1774 25.3372 73.1268 24.5159 74.3428 23.9399C75.5801 23.3639 77.0628 23.0759 78.7908 23.0759C80.5401 23.0759 82.0228 23.3639 83.2388 23.9399C84.4761 24.5159 85.4361 25.3372 86.1187 26.4039C86.8014 27.4706 87.1854 28.7612 87.2707 30.2759C87.2921 30.6812 87.3028 31.1612 87.3028 31.7159C87.3028 32.2492 87.2921 32.7292 87.2707 33.1559C87.1854 34.6492 86.8121 35.9399 86.1508 37.0279C85.5108 38.0946 84.5721 38.9159 83.3348 39.4919C82.1188 40.0679 80.6041 40.3559 78.7908 40.3559ZM78.7908 36.4519C79.7508 36.4519 80.4441 36.1639 80.8708 35.5879C81.3188 35.0119 81.5748 34.1479 81.6388 32.9959C81.6601 32.6759 81.6707 32.2492 81.6707 31.7159C81.6707 31.1826 81.6601 30.7559 81.6388 30.4359C81.5748 29.3052 81.3188 28.4519 80.8708 27.8759C80.4441 27.2786 79.7508 26.9799 78.7908 26.9799C77.8521 26.9799 77.1588 27.2786 76.7108 27.8759C76.2628 28.4519 76.0174 29.3052 75.9748 30.4359C75.9534 30.7559 75.9428 31.1826 75.9428 31.7159C75.9428 32.2492 75.9534 32.6759 75.9748 32.9959C76.0174 34.1479 76.2628 35.0119 76.7108 35.5879C77.1588 36.1639 77.8521 36.4519 78.7908 36.4519Z" fill="white"/>
<path d="M95.745 40.0359C95.425 40.0359 95.1903 39.9612 95.041 39.8119C94.8917 39.6412 94.7637 39.4492 94.657 39.2359L88.609 24.3879C88.5663 24.3026 88.545 24.2066 88.545 24.0999C88.545 23.9079 88.609 23.7479 88.737 23.6199C88.8863 23.4706 89.0677 23.3959 89.281 23.3959H92.897C93.1743 23.3959 93.3877 23.4706 93.537 23.6199C93.6863 23.7692 93.7823 23.9186 93.825 24.0679L94.6381 26.2768C95.6003 28.8911 99.296 28.8964 100.266 26.2849L101.089 24.0679C101.132 23.9186 101.228 23.7692 101.377 23.6199C101.526 23.4706 101.74 23.3959 102.017 23.3959H105.633C105.825 23.3959 105.996 23.4706 106.145 23.6199C106.294 23.7479 106.369 23.9079 106.369 24.0999C106.369 24.2066 106.348 24.3026 106.305 24.3879L100.257 39.2359C100.172 39.4492 100.044 39.6412 99.873 39.8119C99.7237 39.9612 99.4783 40.0359 99.137 40.0359H95.745Z" fill="white"/>
<path d="M115.911 40.3559C113.394 40.3559 111.389 39.6732 109.895 38.3079C108.402 36.9426 107.623 34.9159 107.559 32.2279C107.559 32.0786 107.559 31.8866 107.559 31.6519C107.559 31.4172 107.559 31.2359 107.559 31.1079C107.623 29.4226 107.997 27.9826 108.679 26.7879C109.383 25.5719 110.343 24.6546 111.559 24.0359C112.797 23.3959 114.237 23.0759 115.879 23.0759C117.757 23.0759 119.303 23.4492 120.519 24.1959C121.757 24.9426 122.685 25.9559 123.303 27.2359C123.922 28.5159 124.231 29.9772 124.231 31.6199V32.3879C124.231 32.6226 124.146 32.8146 123.975 32.9639C123.826 33.1132 123.645 33.1879 123.431 33.1879H113.287C113.234 33.1879 113.191 33.2309 113.191 33.2839V33.2839C113.191 33.3266 113.191 33.3692 113.191 33.4119C113.213 34.0306 113.319 34.5959 113.511 35.1079C113.703 35.6199 114.002 36.0252 114.407 36.3239C114.813 36.6226 115.303 36.7719 115.879 36.7719C116.306 36.7719 116.658 36.7079 116.935 36.5799C117.234 36.4306 117.479 36.2706 117.671 36.0999C117.863 35.9079 118.013 35.7479 118.119 35.6199C118.311 35.4066 118.461 35.2786 118.567 35.2359C118.695 35.1719 118.887 35.1399 119.143 35.1399H123.111C123.226 35.1399 123.328 35.1583 123.418 35.1952C123.571 35.2579 123.714 35.3695 123.779 35.5213C123.814 35.6036 123.826 35.7005 123.815 35.8119C123.794 36.1746 123.613 36.6119 123.271 37.1239C122.93 37.6359 122.429 38.1479 121.767 38.6599C121.127 39.1506 120.317 39.5559 119.335 39.8759C118.354 40.1959 117.213 40.3559 115.911 40.3559ZM113.191 29.9559C113.191 29.9912 113.22 30.0199 113.255 30.0199H118.535C118.571 30.0199 118.599 29.9912 118.599 29.9559V29.9559C118.599 29.2732 118.493 28.6759 118.279 28.1639C118.087 27.6519 117.778 27.2572 117.351 26.9799C116.946 26.7026 116.455 26.5639 115.879 26.5639C115.303 26.5639 114.813 26.7026 114.407 26.9799C114.023 27.2572 113.725 27.6519 113.511 28.1639C113.298 28.6759 113.191 29.2732 113.191 29.9559V29.9559Z" fill="white"/>
<path d="M140.049 40.0359C139.836 40.0359 139.644 39.9612 139.473 39.8119C139.324 39.6626 139.249 39.4706 139.249 39.2359V33.1167C139.249 32.6174 139.125 32.126 138.887 31.6871L131.871 18.7437C131.841 18.6879 131.814 18.6223 131.79 18.5636V18.5636C131.771 18.516 131.752 18.4758 131.741 18.4254C131.733 18.3862 131.729 18.3471 131.729 18.3079C131.729 18.1372 131.793 17.9879 131.921 17.8599C132.071 17.7106 132.241 17.6359 132.433 17.6359H136.433C136.753 17.6359 136.999 17.7212 137.169 17.8919C137.249 17.954 137.316 18.0142 137.37 18.0726C137.498 18.2102 137.567 18.3903 137.659 18.554L139.51 21.8705C140.654 23.921 143.605 23.921 144.749 21.8705L146.737 18.3079C146.801 18.1799 146.919 18.0412 147.089 17.8919C147.281 17.7212 147.537 17.6359 147.858 17.6359H151.857C152.049 17.6359 152.209 17.7106 152.337 17.8599C152.465 17.9879 152.529 18.1372 152.529 18.3079C152.529 18.3376 152.527 18.3674 152.523 18.3971C152.512 18.4664 152.501 18.5279 152.484 18.5961V18.5961C152.475 18.6335 152.456 18.6769 152.438 18.7107L145.375 31.6852C145.135 32.1253 145.009 32.6184 145.009 33.1196V39.2359C145.009 39.4706 144.935 39.6626 144.785 39.8119C144.636 39.9612 144.444 40.0359 144.209 40.0359H140.049Z" fill="#CC7E97"/>
<path d="M160.009 40.3559C158.217 40.3559 156.703 40.0679 155.465 39.4919C154.249 38.9159 153.311 38.0946 152.649 37.0279C152.009 35.9399 151.647 34.6492 151.561 33.1559C151.54 32.7292 151.529 32.2492 151.529 31.7159C151.529 31.1612 151.54 30.6812 151.561 30.2759C151.647 28.7612 152.031 27.4706 152.713 26.4039C153.396 25.3372 154.345 24.5159 155.561 23.9399C156.799 23.3639 158.281 23.0759 160.009 23.0759C161.759 23.0759 163.241 23.3639 164.457 23.9399C165.695 24.5159 166.655 25.3372 167.337 26.4039C168.02 27.4706 168.404 28.7612 168.489 30.2759C168.511 30.6812 168.521 31.1612 168.521 31.7159C168.521 32.2492 168.511 32.7292 168.489 33.1559C168.404 34.6492 168.031 35.9399 167.369 37.0279C166.729 38.0946 165.791 38.9159 164.553 39.4919C163.337 40.0679 161.823 40.3559 160.009 40.3559ZM160.009 36.4519C160.969 36.4519 161.663 36.1639 162.089 35.5879C162.537 35.0119 162.793 34.1479 162.857 32.9959C162.879 32.6759 162.889 32.2492 162.889 31.7159C162.889 31.1826 162.879 30.7559 162.857 30.4359C162.793 29.3052 162.537 28.4519 162.089 27.8759C161.663 27.2786 160.969 26.9799 160.009 26.9799C159.071 26.9799 158.377 27.2786 157.929 27.8759C157.481 28.4519 157.236 29.3052 157.193 30.4359C157.172 30.7559 157.161 31.1826 157.161 31.7159C157.161 32.2492 157.172 32.6759 157.193 32.9959C157.236 34.1479 157.481 35.0119 157.929 35.5879C158.377 36.1639 159.071 36.4519 160.009 36.4519Z" fill="#CC7E97"/>
<path d="M177.781 40.3559C176.565 40.3559 175.477 40.0786 174.517 39.5239C173.578 38.9692 172.842 38.1586 172.309 37.0919C171.775 36.0039 171.509 34.6812 171.509 33.1239V24.1959C171.509 23.9612 171.583 23.7692 171.733 23.6199C171.882 23.4706 172.074 23.3959 172.309 23.3959H176.309C176.543 23.3959 176.735 23.4706 176.885 23.6199C177.034 23.7692 177.109 23.9612 177.109 24.1959V32.9319C177.109 35.0226 178.047 36.0679 179.925 36.0679C180.799 36.0679 181.493 35.8012 182.005 35.2679C182.538 34.7132 182.805 33.9346 182.805 32.9319V24.1959C182.805 23.9612 182.879 23.7692 183.029 23.6199C183.178 23.4706 183.37 23.3959 183.605 23.3959H187.605C187.839 23.3959 188.031 23.4706 188.181 23.6199C188.33 23.7692 188.405 23.9612 188.405 24.1959V39.2359C188.405 39.4706 188.33 39.6626 188.181 39.8119C188.031 39.9612 187.839 40.0359 187.605 40.0359H183.893C183.679 40.0359 183.487 39.9612 183.317 39.8119C183.167 39.6626 183.093 39.4706 183.093 39.2359V39.2359C183.093 38.8544 182.563 38.6662 182.275 38.9164C181.877 39.2625 181.424 39.5503 180.917 39.7799C180.042 40.1639 178.997 40.3559 177.781 40.3559Z" fill="#CC7E97"/>
<path d="M192.969 40.0359C192.734 40.0359 192.542 39.9612 192.393 39.8119C192.243 39.6626 192.169 39.4706 192.169 39.2359V24.1959C192.169 23.9826 192.243 23.8012 192.393 23.6519C192.542 23.4812 192.734 23.3959 192.969 23.3959H196.649C196.883 23.3959 197.075 23.4812 197.225 23.6519C197.374 23.8012 197.449 23.9826 197.449 24.1959V24.1959C197.449 24.639 198.029 24.8703 198.382 24.6037C198.727 24.3443 199.098 24.1231 199.497 23.9399C200.307 23.5772 201.214 23.3959 202.217 23.3959H203.625C203.838 23.3959 204.019 23.4706 204.169 23.6199C204.339 23.7692 204.425 23.9612 204.425 24.1959V27.4919C204.425 27.7052 204.339 27.8972 204.169 28.0679C204.019 28.2172 203.838 28.2919 203.625 28.2919H200.521C199.646 28.2919 198.963 28.5372 198.473 29.0279C198.003 29.4972 197.769 30.1692 197.769 31.0439V39.2359C197.769 39.4706 197.683 39.6626 197.513 39.8119C197.363 39.9612 197.171 40.0359 196.937 40.0359H192.969Z" fill="#CC7E97"/>
<path d="M222.392 40.3559C220.366 40.3559 218.627 40.0252 217.176 39.3639C215.747 38.7026 214.627 37.7319 213.816 36.4519C213.027 35.1719 212.59 33.5826 212.504 31.6839C212.483 30.8092 212.472 29.8706 212.472 28.8679C212.472 27.8652 212.483 26.9052 212.504 25.9879C212.59 24.1319 213.038 22.5639 213.848 21.2839C214.659 19.9826 215.79 19.0012 217.24 18.3399C218.691 17.6572 220.408 17.3159 222.392 17.3159C223.8 17.3159 225.102 17.4972 226.296 17.8599C227.491 18.2012 228.536 18.7132 229.432 19.3959C230.328 20.0572 231.022 20.8679 231.512 21.8279C232.024 22.7666 232.291 23.8332 232.312 25.0279C232.334 25.2199 232.27 25.3799 232.12 25.5079C231.992 25.6359 231.832 25.6999 231.64 25.6999H227.32C227.043 25.6999 226.83 25.6466 226.68 25.5399C226.531 25.4119 226.403 25.1879 226.296 24.8679C225.998 23.7372 225.507 22.9692 224.824 22.5639C224.163 22.1372 223.342 21.9239 222.36 21.9239C221.187 21.9239 220.259 22.2546 219.576 22.9159C218.894 23.5559 218.52 24.6332 218.456 26.1479C218.392 27.8972 218.392 29.6892 218.456 31.5239C218.52 33.0386 218.894 34.1266 219.576 34.7879C220.259 35.4279 221.187 35.7479 222.36 35.7479C223.342 35.7479 224.174 35.5346 224.856 35.1079C225.539 34.6812 226.019 33.9132 226.296 32.8039C226.382 32.4839 226.499 32.2706 226.648 32.1639C226.819 32.0359 227.043 31.9719 227.32 31.9719H231.64C231.832 31.9719 231.992 32.0359 232.12 32.1639C232.27 32.2919 232.334 32.4519 232.312 32.6439C232.291 33.8386 232.024 34.9159 231.512 35.8759C231.022 36.8146 230.328 37.6252 229.432 38.3079C228.536 38.9692 227.491 39.4812 226.296 39.8439C225.102 40.1852 223.8 40.3559 222.392 40.3559Z" fill="white"/>
<path d="M240.317 40.3559C239.165 40.3559 238.13 40.1426 237.213 39.7159C236.317 39.2679 235.602 38.6706 235.069 37.9239C234.536 37.1772 234.269 36.3346 234.269 35.3959C234.269 33.8812 234.888 32.6866 236.125 31.8119C237.362 30.9159 239.005 30.3079 241.053 29.9879L244.61 29.4472C244.865 29.4085 245.053 29.1895 245.053 28.9319V28.9319C245.053 28.1639 244.893 27.5772 244.573 27.1719C244.253 26.7666 243.666 26.5639 242.813 26.5639C242.216 26.5639 241.725 26.6812 241.341 26.9159C240.978 27.1506 240.69 27.4706 240.477 27.8759C240.285 28.1532 240.018 28.2919 239.677 28.2919H236.093C235.858 28.2919 235.677 28.2279 235.549 28.0999C235.421 27.9506 235.368 27.7799 235.389 27.5879C235.389 27.2039 235.528 26.7666 235.805 26.2759C236.104 25.7639 236.552 25.2626 237.149 24.7719C237.746 24.2812 238.514 23.8759 239.453 23.5559C240.392 23.2359 241.522 23.0759 242.845 23.0759C244.232 23.0759 245.416 23.2359 246.397 23.5559C247.378 23.8759 248.168 24.3239 248.765 24.8999C249.384 25.4759 249.842 26.1586 250.141 26.9479C250.44 27.7159 250.589 28.5692 250.589 29.5079V39.2359C250.589 39.4706 250.504 39.6626 250.333 39.8119C250.184 39.9612 250.002 40.0359 249.789 40.0359H246.077C245.842 40.0359 245.65 39.9612 245.501 39.8119C245.352 39.6626 245.277 39.4706 245.277 39.2359V39.2359C245.277 38.8952 244.785 38.7206 244.527 38.9433C244.411 39.0433 244.288 39.1408 244.157 39.2359C243.688 39.5772 243.133 39.8439 242.493 40.0359C241.874 40.2492 241.149 40.3559 240.317 40.3559ZM241.821 36.7079C242.44 36.7079 242.994 36.5799 243.485 36.3239C243.997 36.0466 244.392 35.6306 244.669 35.0759C244.968 34.4999 245.117 33.7852 245.117 32.9319V32.9319C245.117 32.6982 244.906 32.5211 244.676 32.5618L242.397 32.9639C241.394 33.1346 240.658 33.4012 240.189 33.7639C239.741 34.1052 239.517 34.5106 239.517 34.9799C239.517 35.3426 239.624 35.6519 239.837 35.9079C240.05 36.1639 240.328 36.3666 240.669 36.5159C241.01 36.6439 241.394 36.7079 241.821 36.7079Z" fill="white"/>
<path d="M262.587 40.0359C261.222 40.0359 260.038 39.8226 259.035 39.3959C258.054 38.9479 257.296 38.2652 256.763 37.3479C256.23 36.4092 255.963 35.2039 255.963 33.7319V30.0839C255.963 28.7054 254.845 27.5879 253.467 27.5879V27.5879C253.232 27.5879 253.03 27.5132 252.859 27.3639C252.71 27.2146 252.635 27.0226 252.635 26.7879V24.1959C252.635 23.9612 252.71 23.7692 252.859 23.6199C253.03 23.4706 253.232 23.3959 253.467 23.3959V23.3959C254.845 23.3959 255.963 22.2784 255.963 20.8999V18.1159C255.963 17.8812 256.038 17.6892 256.187 17.5399C256.358 17.3906 256.55 17.3159 256.763 17.3159H260.475C260.71 17.3159 260.902 17.3906 261.051 17.5399C261.2 17.6892 261.275 17.8812 261.275 18.1159V20.3959C261.275 22.0528 262.618 23.3959 264.275 23.3959H265.275C265.51 23.3959 265.702 23.4706 265.851 23.6199C266 23.7692 266.075 23.9612 266.075 24.1959V26.7879C266.075 27.0226 266 27.2146 265.851 27.3639C265.702 27.5132 265.51 27.5879 265.275 27.5879H264.275C262.618 27.5879 261.275 28.931 261.275 30.5879V33.2839C261.275 34.0092 261.414 34.5852 261.691 35.0119C261.968 35.4386 262.438 35.6519 263.099 35.6519H265.563C265.798 35.6519 265.99 35.7266 266.139 35.8759C266.288 36.0252 266.363 36.2172 266.363 36.4519V39.2359C266.363 39.4706 266.288 39.6626 266.139 39.8119C265.99 39.9612 265.798 40.0359 265.563 40.0359H262.587Z" fill="white"/>
</svg>
