<svg width="33" height="32" viewBox="0 0 33 32" fill="none" xmlns="http://www.w3.org/2000/svg">
<path d="M24.2183 2C25.4321 2 26.5708 2.22559 27.6343 2.67676C28.6978 3.12793 29.6216 3.75098 30.4058 4.5459C31.1899 5.34082 31.813 6.27002 32.2749 7.3335C32.7368 8.39697 32.9678 9.53564 32.9678 10.7495C32.9678 11.3726 32.9033 11.9902 32.7744 12.6025C32.6455 13.2148 32.4521 13.8057 32.1943 14.375H24.7339L21.6401 11.1523L16.4839 16.3086L9.26514 9.08984L4.10889 14.375H0.773438C0.515625 13.8057 0.322266 13.2148 0.193359 12.6025C0.0644531 11.9902 0 11.3726 0 10.7495C0 9.53564 0.225586 8.39697 0.676758 7.3335C1.12793 6.27002 1.75098 5.34619 2.5459 4.56201C3.34082 3.77783 4.27002 3.15479 5.3335 2.69287C6.39697 2.23096 7.53564 2 8.74951 2C9.92041 2 11.0376 2.22021 12.1011 2.66064C13.1646 3.10107 14.1152 3.73486 14.9531 4.56201L16.4839 6.10889L18.0146 4.56201C18.8418 3.73486 19.7871 3.10107 20.8506 2.66064C21.9141 2.22021 23.0366 2 24.2183 2ZM22.6714 16.4375H30.8892L30.6636 16.6953C30.5884 16.7813 30.5078 16.8726 30.4219 16.9692L16.4839 30.8911L2.5459 16.9692C2.45996 16.8833 2.37939 16.7974 2.3042 16.7114C2.229 16.6255 2.15381 16.5342 2.07861 16.4375H6.17139L9.26514 13.4727L16.4839 20.6914L21.6401 15.5352L22.6714 16.4375Z" fill="url(#paint0_linear_1_52)"/>
<defs>
<linearGradient id="paint0_linear_1_52" x1="16.4839" y1="2" x2="16.4839" y2="30.8911" gradientUnits="userSpaceOnUse">
<stop stop-color="#CC7E97"/>
<stop offset="1" stop-color="#DDB5C0"/>
</linearGradient>
</defs>
</svg>
