<svg width="34" height="32" viewBox="0 0 34 32" fill="none" xmlns="http://www.w3.org/2000/svg">
<g clip-path="url(#clip0_1_50)">
<path fill-rule="evenodd" clip-rule="evenodd" d="M9.9 1.09636e-06C8.44131 1.09636e-06 7.04236 0.579464 6.01091 1.61091C4.97946 2.64236 4.4 4.04131 4.4 5.5V6.1292C4.4 7.1148 4.6926 8.0322 5.1964 8.8H3.3C2.42479 8.8 1.58542 9.14768 0.966548 9.76655C0.347678 10.3854 0 11.2248 0 12.1L0 14.3C0 15.1752 0.347678 16.0146 0.966548 16.6335C1.58542 17.2523 2.42479 17.6 3.3 17.6H15.4V8.8H17.6V17.6H29.7C30.5752 17.6 31.4146 17.2523 32.0335 16.6335C32.6523 16.0146 33 15.1752 33 14.3V12.1C33 11.2248 32.6523 10.3854 32.0335 9.76655C31.4146 9.14768 30.5752 8.8 29.7 8.8H27.8036C28.3074 8.0322 28.6 7.1148 28.6 6.1292V5.5C28.6 4.04131 28.0205 2.64236 26.9891 1.61091C25.9576 0.579464 24.5587 1.09636e-06 23.1 1.09636e-06C20.2994 1.09636e-06 17.8464 1.496 16.5 3.7312C15.8156 2.59244 14.848 1.65029 13.6914 0.996429C12.5348 0.342572 11.2286 -0.000708011 9.9 1.09636e-06ZM17.6 8.8H23.7292C25.2032 8.8 26.4 7.6032 26.4 6.1292V5.5C26.4 4.62479 26.0523 3.78542 25.4335 3.16655C24.8146 2.54768 23.9752 2.2 23.1 2.2C21.6413 2.2 20.2424 2.77946 19.2109 3.81091C18.1795 4.84236 17.6 6.24131 17.6 7.7V8.8ZM15.4 8.8H9.2708C7.7968 8.8 6.6 7.6032 6.6 6.1292V5.5C6.6 4.62479 6.94768 3.78542 7.56655 3.16655C8.18542 2.54768 9.02479 2.2 9.9 2.2C10.6223 2.2 11.3375 2.34226 12.0048 2.61866C12.672 2.89506 13.2784 3.30019 13.7891 3.81091C14.2998 4.32164 14.7049 4.92795 14.9813 5.59524C15.2577 6.26253 15.4 6.97773 15.4 7.7V8.8Z" fill="url(#paint0_linear_1_50)"/>
<path d="M15.4 19.8H2.20001V27.5C2.20001 28.9587 2.77947 30.3576 3.81092 31.3891C4.84238 32.4205 6.24132 33 7.70001 33H15.4V19.8ZM17.6 33H25.3C26.7587 33 28.1576 32.4205 29.1891 31.3891C30.2206 30.3576 30.8 28.9587 30.8 27.5V19.8H17.6V33Z" fill="url(#paint1_linear_1_50)"/>
</g>
<defs>
<linearGradient id="paint0_linear_1_50" x1="16.5" y1="0" x2="16.5" y2="17.6" gradientUnits="userSpaceOnUse">
<stop stop-color="#CC7E97"/>
<stop offset="1" stop-color="#DDB5C0"/>
</linearGradient>
<linearGradient id="paint1_linear_1_50" x1="16.5" y1="19.8" x2="16.5" y2="33" gradientUnits="userSpaceOnUse">
<stop stop-color="#CC7E97"/>
<stop offset="1" stop-color="#DDB5C0"/>
</linearGradient>
<clipPath id="clip0_1_50">
<rect width="33" height="32" fill="white" transform="translate(0.5)"/>
</clipPath>
</defs>
</svg>
