<svg width="33" height="32" viewBox="0 0 33 32" fill="none" xmlns="http://www.w3.org/2000/svg">
<path fill-rule="evenodd" clip-rule="evenodd" d="M16.5 1C16.9376 1 17.3573 1.17384 17.6667 1.48327C17.9762 1.79271 18.15 2.21239 18.15 2.65V4.3H19.4106C19.9227 4.30003 20.4277 4.41923 20.8857 4.64815L23.4894 5.95H29.7C30.1376 5.95 30.5573 6.12384 30.8667 6.43327C31.1762 6.74271 31.35 7.16239 31.35 7.6C31.35 8.03761 31.1762 8.45729 30.8667 8.76673C30.5573 9.07616 30.1376 9.25 29.7 9.25H29.0697L32.8251 16.7625C32.9406 16.9918 33 17.2443 33 17.5C33 19.2504 32.3046 20.9292 31.0669 22.1669C29.8292 23.4046 28.1504 24.1 26.4 24.1C24.6496 24.1 22.9708 23.4046 21.7331 22.1669C20.4954 20.9292 19.8 19.2504 19.8 17.5C19.8 17.2443 19.8594 16.9918 19.9749 16.7625L23.7303 9.25H23.4894C22.9773 9.24997 22.4723 9.13077 22.0143 8.90185L19.4106 7.6H18.15V27.4H23.1C23.5376 27.4 23.9573 27.5738 24.2667 27.8833C24.5762 28.1927 24.75 28.6124 24.75 29.05C24.75 29.4876 24.5762 29.9073 24.2667 30.2167C23.9573 30.5262 23.5376 30.7 23.1 30.7H9.9C9.46239 30.7 9.04271 30.5262 8.73327 30.2167C8.42384 29.9073 8.25 29.4876 8.25 29.05C8.25 28.6124 8.42384 28.1927 8.73327 27.8833C9.04271 27.5738 9.46239 27.4 9.9 27.4H14.85V7.6H13.5894L10.9857 8.90185C10.5277 9.13077 10.0227 9.24997 9.5106 9.25H9.2697L13.0251 16.7625C13.1398 16.9914 13.1997 17.2439 13.2 17.5C13.2 19.2504 12.5046 20.9292 11.2669 22.1669C10.0292 23.4046 8.35043 24.1 6.6 24.1C4.84957 24.1 3.17084 23.4046 1.9331 22.1669C0.695355 20.9292 0 19.2504 0 17.5C0.000273531 17.2439 0.0601534 16.9914 0.1749 16.7625L3.9303 9.25H3.3C2.86239 9.25 2.44271 9.07616 2.13327 8.76673C1.82384 8.45729 1.65 8.03761 1.65 7.6C1.65 7.16239 1.82384 6.74271 2.13327 6.43327C2.44271 6.12384 2.86239 5.95 3.3 5.95H9.5106L12.1143 4.64815C12.5723 4.41923 13.0773 4.30003 13.5894 4.3H14.85V2.65C14.85 2.21239 15.0238 1.79271 15.3333 1.48327C15.6427 1.17384 16.0624 1 16.5 1Z" fill="url(#paint0_linear_1_54)"/>
<defs>
<linearGradient id="paint0_linear_1_54" x1="16.5" y1="1" x2="16.5" y2="30.7" gradientUnits="userSpaceOnUse">
<stop stop-color="#CC7E97"/>
<stop offset="1" stop-color="#DDB5C0"/>
</linearGradient>
</defs>
</svg>
